<svg width="269" height="460" viewBox="0 0 269 460" fill="none" xmlns="http://www.w3.org/2000/svg">
<path d="M254.936 204.58C235.286 143.278 197.951 78.544 144.371 12.205L134.49 0L124.583 12.205C85.4766 60.6377 54.7841 108.821 33.2523 155.455L29.9312 162.789C-0.844329 233.086 -0.152436 276.149 0.0412945 281.934C0.0412945 416.853 125.385 457.537 130.727 459.059L134.463 460L136.455 459.53L138.227 459.059C143.568 457.398 268.801 416.577 268.884 282.072C269.133 278.17 269.77 250.549 254.936 204.58ZM147.194 428.366V345.339H231.107C210.654 392.997 169.916 417.711 147.194 428.366ZM243.589 281.74C243.632 294.61 242.202 307.443 239.327 319.988H147.194V262.478H242.232C243.201 269.646 243.506 274.876 243.616 277.976L243.589 281.74ZM147.194 237.182V57.289C203.652 134.006 227.454 195.668 237.417 237.182H147.194ZM121.815 57.3443V218.639L60.7067 157.559C77.949 122.345 98.4052 88.7975 121.815 57.3443ZM104.518 237.237H31.5641C36.1569 218.49 42.2086 200.132 49.6641 182.328L104.518 237.237ZM25.42 278.059C25.5972 272.845 26.0499 267.644 26.7761 262.478H121.815V428.394C89.3235 413.283 25.3924 372.019 25.3924 281.491L25.42 278.059Z" fill="#EE8622"/>
</svg>
