<svg width="93" height="93" viewBox="0 0 93 93" fill="none" xmlns="http://www.w3.org/2000/svg">
<mask id="mask0_268_4974" style="mask-type:alpha" maskUnits="userSpaceOnUse" x="0" y="0" width="93" height="93">
<rect x="0.675842" y="0.565552" width="92.1486" height="92.1486" fill="#D9D9D9"/>
</mask>
<g mask="url(#mask0_268_4974)">
<rect x="14.1361" y="43.6119" width="20.5203" height="26.2397" fill="url(#paint0_linear_268_4974)"/>
<rect x="59.139" y="43.6119" width="20.5203" height="26.4914" fill="url(#paint1_linear_268_4974)"/>
<path d="M57.157 9.87241C57.157 15.5221 56.0442 21.1164 53.8822 26.336C51.7202 31.5556 48.5512 36.2983 44.5563 40.2932C40.5614 44.2881 35.8188 47.457 30.5992 49.619C25.3796 51.7811 19.7852 52.8939 14.1356 52.8939V32.3569C17.0883 32.3569 20.0121 31.7753 22.74 30.6454C25.468 29.5154 27.9466 27.8592 30.0345 25.7714C32.1224 23.6835 33.7786 21.2048 34.9085 18.4769C36.0385 15.7489 36.6201 12.8251 36.6201 9.87241H57.157Z" fill="url(#paint2_linear_268_4974)"/>
<path d="M36.6362 9.87241C36.6362 15.5221 37.749 21.1164 39.911 26.336C42.073 31.5556 45.242 36.2983 49.2369 40.2932C53.2318 44.2881 57.9744 47.457 63.194 49.619C68.4136 51.7811 74.008 52.8939 79.6576 52.8939V32.3569C76.7049 32.3569 73.7811 31.7753 71.0532 30.6454C68.3252 29.5154 65.8466 27.8592 63.7587 25.7714C61.6708 23.6835 60.0146 21.2048 58.8846 18.4769C57.7547 15.7489 57.1731 12.8251 57.1731 9.87241H36.6362Z" fill="url(#paint3_linear_268_4974)"/>
<path d="M79.6493 70.0267C75.627 65.2622 70.6178 61.4282 64.9682 58.79C59.3185 56.1517 53.1633 54.7721 46.928 54.7466C40.6928 54.721 34.5264 56.0502 28.8553 58.6421C23.1843 61.2339 18.1439 65.0267 14.0827 69.7581L29.6777 83.144C31.8002 80.6712 34.4345 78.689 37.3984 77.3344C40.3623 75.9798 43.5851 75.2851 46.8438 75.2985C50.1026 75.3118 53.3196 76.0328 56.2723 77.4117C59.225 78.7905 61.8429 80.7943 63.9451 83.2844L79.6493 70.0267Z" fill="#08CA91"/>
</g>
<defs>
<linearGradient id="paint0_linear_268_4974" x1="22.9737" y1="50.2124" x2="23.4697" y2="63.2642" gradientUnits="userSpaceOnUse">
<stop stop-color="#019C6F"/>
<stop offset="1" stop-color="#07AC7C"/>
</linearGradient>
<linearGradient id="paint1_linear_268_4974" x1="69.3991" y1="45.9507" x2="69.3991" y2="70.1033" gradientUnits="userSpaceOnUse">
<stop stop-color="#007B58"/>
<stop offset="1" stop-color="#02D396"/>
</linearGradient>
<linearGradient id="paint2_linear_268_4974" x1="45.7887" y1="23.5258" x2="14.1356" y2="52.8939" gradientUnits="userSpaceOnUse">
<stop stop-color="#00986C"/>
<stop offset="1" stop-color="#02D396"/>
</linearGradient>
<linearGradient id="paint3_linear_268_4974" x1="42.276" y1="9.87242" x2="82.5085" y2="47.0748" gradientUnits="userSpaceOnUse">
<stop stop-color="#02D396"/>
<stop offset="0.605177" stop-color="#02CE93"/>
<stop offset="1" stop-color="#00B681"/>
</linearGradient>
</defs>
</svg>
