<svg width="27" height="27" viewBox="0 0 27 27" fill="none" xmlns="http://www.w3.org/2000/svg">
<path d="M10.7476 15.8639C10.7476 16.9147 11.5601 17.7597 12.5567 17.7597H14.5934C15.46 17.7597 16.1642 17.023 16.1642 16.1022C16.1642 15.1164 15.7309 14.7589 15.0917 14.5314L11.8309 13.3939C11.1917 13.1664 10.7584 12.8197 10.7584 11.823C10.7584 10.913 11.4625 10.1655 12.3292 10.1655H14.3659C15.3626 10.1655 16.1751 11.0105 16.1751 12.0614" stroke="#6C7878" stroke-width="1.62964" stroke-linecap="round" stroke-linejoin="round"/>
<path d="M13.4565 9.09308V18.8431" stroke="#6C7878" stroke-width="1.62964" stroke-linecap="round" stroke-linejoin="round"/>
<path d="M24.2868 13.9674C24.2868 19.9474 19.4334 24.8008 13.4534 24.8008C7.47345 24.8008 2.62012 19.9474 2.62012 13.9674C2.62012 7.98743 7.47345 3.13409 13.4534 3.13409" stroke="#6C7878" stroke-width="1.62964" stroke-linecap="round" stroke-linejoin="round"/>
<path d="M24.2874 7.46792V3.13458H19.9541" stroke="#6C7878" stroke-width="1.62964" stroke-linecap="round" stroke-linejoin="round"/>
<path d="M18.8701 8.55076L24.2868 3.13409" stroke="#6C7878" stroke-width="1.62964" stroke-linecap="round" stroke-linejoin="round"/>
</svg>
