<svg width="27" height="26" viewBox="0 0 27 26" fill="none" xmlns="http://www.w3.org/2000/svg">
<path d="M10.4478 14.8961C10.4478 15.9469 11.2603 16.7919 12.257 16.7919H14.2936C15.1603 16.7919 15.8645 16.0552 15.8645 15.1344C15.8645 14.1486 15.4312 13.7911 14.792 13.5636L11.5311 12.4261C10.892 12.1986 10.4587 11.8519 10.4587 10.8553C10.4587 9.94525 11.1628 9.19775 12.0295 9.19775H14.0661C15.0628 9.19775 15.8753 10.0428 15.8753 11.0936" stroke="#02D396" stroke-width="1.62964" stroke-linecap="round" stroke-linejoin="round"/>
<path d="M13.1569 8.125V17.875" stroke="#02D396" stroke-width="1.62964" stroke-linecap="round" stroke-linejoin="round"/>
<path d="M23.987 12.9998C23.987 18.9798 19.1336 23.8332 13.1536 23.8332C7.17365 23.8332 2.32031 18.9798 2.32031 12.9998C2.32031 7.01984 7.17365 2.1665 13.1536 2.1665" stroke="#02D396" stroke-width="1.62964" stroke-linecap="round" stroke-linejoin="round"/>
<path d="M23.9878 6.50033V2.16699H19.6545" stroke="#02D396" stroke-width="1.62964" stroke-linecap="round" stroke-linejoin="round"/>
<path d="M18.5703 7.58317L23.987 2.1665" stroke="#02D396" stroke-width="1.62964" stroke-linecap="round" stroke-linejoin="round"/>
</svg>
