<svg width="43" height="44" viewBox="0 0 43 44" fill="none" xmlns="http://www.w3.org/2000/svg">
<circle cx="21.4028" cy="21.9812" r="20.7464" fill="white" stroke="#DBDBDB" stroke-width="1.13798"/>
<path d="M22.5401 21.9908L27.373 17.3136C27.6875 17.0094 27.6875 16.5175 27.373 16.2133C27.0587 15.909 26.5504 15.909 26.236 16.2133L21.4029 20.8905L16.57 16.2133C16.2554 15.909 15.7473 15.909 15.4329 16.2133C15.1184 16.5175 15.1184 17.0094 15.4329 17.3136L20.2659 21.9908L15.4329 26.668C15.1184 26.9722 15.1184 27.4641 15.4329 27.7684C15.5896 27.9201 15.7956 27.9964 16.0014 27.9964C16.2073 27.9964 16.4131 27.9201 16.57 27.7684L21.4029 23.0912L26.236 27.7684C26.3928 27.9201 26.5987 27.9964 26.8045 27.9964C27.0104 27.9964 27.2162 27.9201 27.373 27.7684C27.6875 27.4641 27.6875 26.9722 27.373 26.668L22.5401 21.9908Z" fill="#272C3F"/>
</svg>
