<svg width="720" height="200" viewBox="0 0 720 200" fill="none" xmlns="http://www.w3.org/2000/svg">
<path d="M377.25 87.5128V40.3232H386.429V87.5128H377.25ZM385.136 87.5128V79.4324H405.499V87.5128H385.136Z" fill="black"/>
<path d="M412.981 87.5128V40.3232H421.966V87.5128H412.981ZM420.673 87.5128V79.7556H442.07V87.5128H420.673ZM420.673 67.4087V59.6516H440.389V67.4087H420.673ZM420.673 48.0804V40.3232H441.553V48.0804H420.673Z" fill="black"/>
<path d="M462.09 87.5128L447.028 40.3232H456.531L469.007 81.1778L466.292 79.8849H473.274L470.494 81.1778L482 40.3232H491.18L477.217 87.5128H462.09Z" fill="black"/>
<path d="M498.582 87.5128V40.3232H507.568V87.5128H498.582ZM506.275 87.5128V79.7556H527.672V87.5128H506.275ZM506.275 67.4087V59.6516H525.991V67.4087H506.275ZM506.275 48.0804V40.3232H527.155V48.0804H506.275Z" fill="black"/>
<path d="M537.091 87.5128V40H546.27V87.5128H537.091ZM565.921 87.5128L551.441 66.9562H561.72L576.652 87.5128H565.921ZM543.555 71.7398V64.3059H555.579C557.259 64.3059 558.703 63.9611 559.91 63.2716C561.159 62.582 562.129 61.6124 562.819 60.3626C563.508 59.1129 563.853 57.6907 563.853 56.0962C563.853 54.4585 563.508 53.0148 562.819 51.7651C562.129 50.5153 561.159 49.5457 559.91 48.8561C558.703 48.1666 557.259 47.8218 555.579 47.8218H543.555V40H554.609C558.401 40 561.677 40.5602 564.435 41.6807C567.236 42.8012 569.391 44.5035 570.899 46.7875C572.407 49.0716 573.162 51.9375 573.162 55.3851V56.4194C573.162 59.9101 572.386 62.776 570.834 65.0169C569.326 67.2579 567.193 68.9386 564.435 70.0591C561.677 71.1796 558.401 71.7398 554.609 71.7398H543.555Z" fill="black"/>
<path d="M377.25 158.372V111.182H386.429V158.372H377.25ZM385.136 138.72V130.963L404.012 130.898V138.656L385.136 138.72ZM385.136 118.939V111.182H404.917V118.939H385.136Z" fill="black"/>
<path d="M413.552 158.372V111.182H422.731V158.372H413.552Z" fill="black"/>
<path d="M434.507 158.372V111.182H449.569L469.415 150.744H471.548L470.255 151.907V111.182H478.917V158.372H463.791L443.945 118.81H441.747L443.04 117.647V158.372H434.507Z" fill="black"/>
<path d="M485.911 158.372L502.007 111.182H517.004L533.553 158.372H524.115L510.087 117.453L513.384 118.875H505.304L508.665 117.453L495.09 158.372H485.911ZM497.159 145.831L500.068 138.074H519.202L522.046 145.831H497.159Z" fill="black"/>
<path d="M540.563 158.372V111.182H555.625L575.47 150.744H577.603L576.31 151.907V111.182H584.973V158.372H569.846L550.001 118.81H547.803L549.096 117.647V158.372H540.563Z" fill="black"/>
<path d="M617.888 159.6C613.622 159.6 609.959 158.846 606.899 157.337C603.839 155.829 601.339 153.868 599.4 151.455C597.504 149.042 596.103 146.413 595.198 143.568C594.293 140.724 593.841 137.988 593.841 135.359V133.937C593.841 131.006 594.293 128.119 595.198 125.274C596.146 122.43 597.59 119.844 599.529 117.517C601.469 115.19 603.925 113.337 606.899 111.958C609.915 110.536 613.471 109.825 617.565 109.825C621.831 109.825 625.538 110.6 628.684 112.152C631.873 113.66 634.415 115.815 636.311 118.616C638.208 121.374 639.35 124.606 639.738 128.313H630.494C630.149 126.158 629.373 124.348 628.166 122.883C627.003 121.374 625.516 120.254 623.706 119.521C621.896 118.745 619.849 118.358 617.565 118.358C615.238 118.358 613.169 118.767 611.359 119.586C609.549 120.362 608.041 121.482 606.834 122.947C605.627 124.413 604.701 126.136 604.054 128.119C603.451 130.101 603.149 132.299 603.149 134.712C603.149 137.04 603.451 139.194 604.054 141.177C604.701 143.159 605.649 144.904 606.899 146.413C608.149 147.878 609.678 149.02 611.488 149.839C613.342 150.658 615.475 151.067 617.888 151.067C621.422 151.067 624.396 150.205 626.809 148.481C629.265 146.714 630.752 144.258 631.269 141.112H640.513C640.082 144.473 638.94 147.555 637.087 150.356C635.234 153.157 632.691 155.398 629.459 157.079C626.227 158.76 622.37 159.6 617.888 159.6Z" fill="black"/>
<path d="M648.259 158.372V111.182H657.245V158.372H648.259ZM655.952 158.372V150.615H677.349V158.372H655.952ZM655.952 138.268V130.511H675.668V138.268H655.952ZM655.952 118.939V111.182H676.832V118.939H655.952Z" fill="black"/>
<path d="M43.8692 58.6869C44.9016 49.204 53.4259 42.3535 62.9088 43.3859L303.293 69.5561C312.776 70.5884 319.626 79.1128 318.594 88.5956V88.5956C317.562 98.0785 309.037 104.929 299.554 103.897L59.1702 77.7265C49.6873 76.6941 42.8368 68.1698 43.8692 58.6869V58.6869Z" fill="url(#paint0_linear_107_887)"/>
<path fill-rule="evenodd" clip-rule="evenodd" d="M215.775 160C225.314 160 233.329 152.055 230.208 143.041C223.184 122.753 203.909 108.185 181.232 108.185C158.554 108.185 139.28 122.753 132.255 143.041C129.135 152.055 137.149 160 146.688 160H215.775Z" fill="#6563D6"/>
<defs>
<linearGradient id="paint0_linear_107_887" x1="88.6643" y1="46.1899" x2="269.498" y2="112.096" gradientUnits="userSpaceOnUse">
<stop stop-color="#76EBE4"/>
<stop offset="0.541405" stop-color="#6563D6"/>
<stop offset="1" stop-color="#F45FDC"/>
</linearGradient>
</defs>
</svg>
